<svg width="18" height="18" viewBox="0 0 18 18" fill="none" xmlns="http://www.w3.org/2000/svg">
<path d="M10.175 9.00001L17.0833 2.09168C17.2198 1.93226 17.2912 1.7272 17.2831 1.51747C17.275 1.30774 17.188 1.10879 17.0396 0.960376C16.8912 0.811964 16.6923 0.72502 16.4825 0.716919C16.2728 0.708818 16.0677 0.780157 15.9083 0.916679L8.99999 7.82501L2.09165 0.908345C1.93473 0.751426 1.72191 0.663269 1.49999 0.663269C1.27807 0.663269 1.06524 0.751426 0.908321 0.908345C0.751401 1.06527 0.663245 1.27809 0.663245 1.50001C0.663245 1.72193 0.751401 1.93476 0.908321 2.09168L7.82499 9.00001L0.908321 15.9083C0.821086 15.9831 0.750236 16.075 0.700217 16.1784C0.650197 16.2818 0.622089 16.3944 0.617656 16.5091C0.613223 16.6239 0.632561 16.7383 0.674456 16.8453C0.716352 16.9522 0.7799 17.0493 0.861113 17.1306C0.942325 17.2118 1.03945 17.2753 1.14639 17.3172C1.25332 17.3591 1.36777 17.3784 1.48253 17.374C1.5973 17.3696 1.70991 17.3415 1.8133 17.2914C1.91668 17.2414 2.00862 17.1706 2.08332 17.0833L8.99999 10.175L15.9083 17.0833C16.0677 17.2199 16.2728 17.2912 16.4825 17.2831C16.6923 17.275 16.8912 17.1881 17.0396 17.0396C17.188 16.8912 17.275 16.6923 17.2831 16.4826C17.2912 16.2728 17.2198 16.0678 17.0833 15.9083L10.175 9.00001Z" fill="white" fill-opacity="0.26"/>
</svg>
